<?xml version="1.0" encoding="utf-8"?>
<!-- Generator: Adobe Illustrator 19.0.0, SVG Export Plug-In . SVG Version: 6.00 Build 0)  -->
<svg version="1.1" id="Layer_1" xmlns="http://www.w3.org/2000/svg" xmlns:xlink="http://www.w3.org/1999/xlink" x="0px" y="0px"
	 viewBox="-424 470.4 542.7 90.4" style="enable-background:new -424 470.4 542.7 90.4;" xml:space="preserve">
<style type="text/css">
	.st0{fill:#FFFFFF;}
</style>
<g id="XMLID_36_">
	<g id="XMLID_115_">
		<g id="XMLID_206_">
			<g id="XMLID_220_">
				<g id="XMLID_231_">
					<path id="XMLID_232_" class="st0" d="M-340.6,506.9c0,1-0.8,1.7-1.7,1.7h-31.3c-1,0-1.7-0.8-1.7-1.7v-3.5c0-1,0.8-1.7,1.7-1.7
						h31.3c1,0,1.7,0.8,1.7,1.7V506.9z"/>
				</g>
				<g id="XMLID_229_">
					<path id="XMLID_230_" class="st0" d="M-326.6,517.3c0,1-0.8,1.7-1.7,1.7h-38.3c-1,0-1.7-0.8-1.7-1.7v-3.5c0-1,0.8-1.7,1.7-1.7
						h38.2c1,0,1.7,0.8,1.7,1.7L-326.6,517.3L-326.6,517.3z"/>
				</g>
				<g id="XMLID_227_">
					<path id="XMLID_228_" class="st0" d="M-316.2,527.8c0,1-0.8,1.7-1.7,1.7h-41.8c-1,0-1.7-0.8-1.7-1.7v-3.5c0-1,0.8-1.7,1.7-1.7
						h41.7c1,0,1.7,0.8,1.7,1.7L-316.2,527.8L-316.2,527.8z"/>
				</g>
				<g id="XMLID_225_">
					<path id="XMLID_226_" class="st0" d="M-316.2,538.2c0,1-0.8,1.7-1.7,1.7h-41.8c-1,0-1.7-0.8-1.7-1.7v-3.5c0-1,0.8-1.7,1.7-1.7
						h41.7c1,0,1.7,0.8,1.7,1.7L-316.2,538.2L-316.2,538.2z"/>
				</g>
				<g id="XMLID_223_">
					<path id="XMLID_224_" class="st0" d="M-326.6,548.6c0,1-0.8,1.7-1.7,1.7h-38.3c-1,0-1.7-0.8-1.7-1.7v-3.5c0-1,0.8-1.7,1.7-1.7
						h38.2c1,0,1.7,0.8,1.7,1.7L-326.6,548.6L-326.6,548.6z"/>
				</g>
				<g id="XMLID_221_">
					<path id="XMLID_222_" class="st0" d="M-340.6,559.1c0,1-0.8,1.7-1.7,1.7h-31.3c-1,0-1.7-0.8-1.7-1.7v-3.5c0-1,0.8-1.7,1.7-1.7
						h31.3c1,0,1.7,0.8,1.7,1.7V559.1z"/>
				</g>
			</g>
			<g id="XMLID_207_">
				<g id="XMLID_218_">
					<path id="XMLID_219_" class="st0" d="M-399.7,475.6c0,1,0.8,1.7,1.7,1.7h31.3c1,0,1.7-0.8,1.7-1.7v-3.5c0-1-0.8-1.7-1.7-1.7
						h-31.2c-1,0-1.7,0.8-1.7,1.7L-399.7,475.6L-399.7,475.6z"/>
				</g>
				<g id="XMLID_216_">
					<path id="XMLID_217_" class="st0" d="M-413.6,486c0,1,0.8,1.7,1.7,1.7h38.2c1,0,1.7-0.8,1.7-1.7v-3.5c0-1-0.8-1.7-1.7-1.7
						h-38.1c-1,0-1.7,0.8-1.7,1.7v3.5H-413.6z"/>
				</g>
				<g id="XMLID_214_">
					<path id="XMLID_215_" class="st0" d="M-424,496.5c0,1,0.8,1.7,1.7,1.7h41.7c1,0,1.7-0.8,1.7-1.7V493c0-1-0.8-1.7-1.7-1.7h-41.7
						c-1,0-1.7,0.8-1.7,1.7V496.5z"/>
				</g>
				<g id="XMLID_212_">
					<path id="XMLID_213_" class="st0" d="M-424,506.9c0,1,0.8,1.7,1.7,1.7h41.7c1,0,1.7-0.8,1.7-1.7v-3.5c0-1-0.8-1.7-1.7-1.7
						h-41.7c-1,0-1.7,0.8-1.7,1.7V506.9z"/>
				</g>
				<g id="XMLID_210_">
					<path id="XMLID_211_" class="st0" d="M-413.6,517.3c0,1,0.8,1.7,1.7,1.7h38.2c1,0,1.7-0.8,1.7-1.7v-3.5c0-1-0.8-1.7-1.7-1.7
						h-38.1c-1,0-1.7,0.8-1.7,1.7v3.5H-413.6z"/>
				</g>
				<g id="XMLID_208_">
					<path id="XMLID_209_" class="st0" d="M-399.7,527.8c0,1,0.8,1.7,1.7,1.7h31.3c1,0,1.7-0.8,1.7-1.7v-3.5c0-1-0.8-1.7-1.7-1.7
						h-31.2c-1,0-1.7,0.8-1.7,1.7L-399.7,527.8L-399.7,527.8z"/>
				</g>
			</g>
		</g>
	</g>
	<g>
		<g id="XMLID_37_">
			<g id="XMLID_288_">
				<path id="XMLID_313_" class="st0" d="M-275.3,535.9c-1.7,0.2-3.3,0.3-4.8,0.3c-4.4,0-7.7-0.6-9.8-1.9c-2.1-1.2-3.5-3.3-4.2-6.1
					c-0.7-2.8-1-7.1-1-12.8c0-5.6,0.4-9.9,1.1-12.7c0.7-2.9,2.1-4.9,4.2-6.2c2.1-1.3,5.4-1.9,9.8-1.9c1.5,0,3.1,0.1,4.7,0.3
					c1.6,0.2,3,0.5,4,0.8v7.1c-3.3-0.4-5.6-0.5-6.7-0.5c-2.7,0-4.5,0.3-5.5,0.8s-1.6,1.6-1.9,3.2c-0.3,1.6-0.4,4.7-0.4,9.1
					c0,4.4,0.1,7.5,0.4,9.1c0.3,1.6,0.9,2.7,1.9,3.2s2.8,0.8,5.5,0.8c2.3,0,4.6-0.2,6.8-0.5v7.1
					C-272.2,535.4-273.6,535.7-275.3,535.9z"/>
				<path id="XMLID_310_" class="st0" d="M-261.4,534.4c-2.1-1.2-3.4-3.1-4-5.8c-0.5-2.7-0.8-7.1-0.8-13.2c0-6.1,0.3-10.5,0.8-13.2
					s1.8-4.6,4-5.8c2.1-1.2,5.6-1.8,10.5-1.8c5,0,8.5,0.6,10.6,1.8c2.1,1.2,3.4,3.1,3.9,5.8c0.5,2.6,0.8,7,0.8,13.2
					s-0.3,10.6-0.8,13.2c-0.5,2.6-1.8,4.6-3.9,5.8c-2.1,1.2-5.6,1.8-10.6,1.8C-255.8,536.2-259.3,535.6-261.4,534.4z M-246.6,527.9
					c0.7-0.4,1.2-1.5,1.4-3.1c0.2-1.6,0.3-4.8,0.3-9.4c0-4.7-0.1-7.8-0.3-9.4c-0.2-1.6-0.7-2.6-1.4-3.1c-0.7-0.4-2.2-0.6-4.3-0.6
					c-2.1,0-3.6,0.2-4.3,0.6c-0.7,0.4-1.2,1.5-1.4,3.1c-0.2,1.6-0.3,4.8-0.3,9.4c0,4.7,0.1,7.8,0.3,9.4c0.2,1.6,0.7,2.6,1.4,3.1
					c0.7,0.4,2.2,0.6,4.3,0.6C-248.8,528.5-247.4,528.3-246.6,527.9z"/>
				<path id="XMLID_308_" class="st0" d="M-208.2,535.7l-11.9-23.2h-0.3v23.2h-8.8v-40.6h9.3l11.2,21.3h0.3v-21.3h8.8v40.6H-208.2z"
					/>
				<path id="XMLID_306_" class="st0" d="M-185.7,535.7V503h-9.6v-7.9h28.4v7.9h-9.6v32.7H-185.7z"/>
				<path id="XMLID_304_" class="st0" d="M-162.3,535.7v-40.6h24.4v7.6h-15.3v8.7h13.1v7.6h-13.1v9.1h15.3v7.6H-162.3z"/>
				<path id="XMLID_302_" class="st0" d="M-110.5,535.7l-11.9-23.2h-0.3v23.2h-8.8v-40.6h9.3l11.2,21.3h0.3v-21.3h8.8v40.6H-110.5z"
					/>
				<path id="XMLID_300_" class="st0" d="M-88.1,535.7V503h-9.6v-7.9h28.4v7.9h-9.6v32.7H-88.1z"/>
				<path id="XMLID_298_" class="st0" d="M-65.2,535.2V528c4.9,0.4,8.3,0.6,10.4,0.6c1.6,0,2.9-0.1,3.8-0.2c0.9-0.2,1.6-0.4,1.9-0.8
					c0.4-0.4,0.6-0.8,0.7-1.3s0.1-1.2,0.1-2.2c0-1.3-0.1-2.2-0.2-2.7c-0.2-0.5-0.5-0.9-1-1.2c-0.5-0.2-1.3-0.5-2.5-0.6l-6.5-0.9
					c-3-0.4-5-1.6-6.1-3.5c-1.1-1.9-1.6-4.6-1.6-8.1c0-3.4,0.6-6,1.7-7.8c1.1-1.8,2.7-3,4.7-3.6c2-0.6,4.5-0.9,7.5-0.9
					c3.7,0,7.6,0.4,11.5,1.2v7.1c-3.5-0.4-6.7-0.6-9.4-0.6c-2.9,0-4.8,0.3-5.6,0.8c-0.5,0.3-0.8,0.7-0.9,1.2s-0.2,1.2-0.2,2.3
					s0.1,1.9,0.2,2.4s0.4,0.8,0.8,1c0.4,0.2,1.1,0.4,2.2,0.6l7,1c1.6,0.2,2.9,0.6,3.9,1.2c1,0.6,1.9,1.5,2.6,2.8
					c0.8,1.7,1.2,4.2,1.2,7.4c0,3.8-0.5,6.6-1.6,8.6c-1.1,1.9-2.5,3.2-4.3,3.8s-4.2,0.9-7.2,0.9C-57.1,536.2-61.5,535.8-65.2,535.2z
					"/>
				<path id="XMLID_296_" class="st0" d="M-26.5,535.7V503H-36v-7.9h28.4v7.9h-9.6v32.7H-26.5z"/>
				<path id="XMLID_293_" class="st0" d="M16.5,535.7l-2.1-8.1h-12l-1.9,8.1h-9.2l10.9-40.6H15l10.8,40.6H16.5z M8.6,503.4H8.2
					l-4,16.6h8.3L8.6,503.4z"/>
				<path id="XMLID_291_" class="st0" d="M48.9,535.9c-1.7,0.2-3.3,0.3-4.8,0.3c-4.4,0-7.7-0.6-9.8-1.9s-3.5-3.3-4.2-6.1
					s-1-7.1-1-12.8c0-5.6,0.4-9.9,1.1-12.7c0.7-2.9,2.1-4.9,4.2-6.2c2.1-1.3,5.4-1.9,9.8-1.9c1.5,0,3.1,0.1,4.7,0.3
					c1.6,0.2,3,0.5,4,0.8v7.1c-3.3-0.4-5.6-0.5-6.7-0.5c-2.7,0-4.5,0.3-5.5,0.8s-1.6,1.6-1.9,3.2c-0.3,1.6-0.4,4.7-0.4,9.1
					c0,4.4,0.1,7.5,0.4,9.1c0.3,1.6,0.9,2.7,1.9,3.2s2.8,0.8,5.5,0.8c2.3,0,4.6-0.2,6.8-0.5v7.1C52,535.4,50.6,535.7,48.9,535.9z"/>
				<path id="XMLID_289_" class="st0" d="M79.7,535.7l-9.1-16.8h-2.5v16.8H59v-40.6h9.1v16.1h2.5l9.3-16.1h9.9L78,514.5l11.9,21.2
					H79.7L79.7,535.7z"/>
			</g>
		</g>
		<g>
			<path class="st0" d="M99.6,507.1v-10H96v-2h9.5v2H102v10H99.6z"/>
			<path class="st0" d="M107.1,507.1v-12h3.6l2.2,8.2l2.2-8.2h3.6v12h-2.3v-9.4l-2.4,9.4h-2.3l-2.4-9.4v9.4H107.1z"/>
		</g>
	</g>
</g>
</svg>
